<svg width="1920" height="681" viewBox="0 0 1920 681" fill="none" xmlns="http://www.w3.org/2000/svg">
<path d="M1899.96 212.354C2036.9 160.322 2146.97 255.674 2275.57 190.285L3570.06 7.24202e-06L2447.32 711.279L-834.505 824.884C-835.693 824.938 -836.91 824.98 -838.157 825.01L-834.505 824.884C-710.89 819.249 -901.743 684.42 -791.519 713.589C-680.236 743.038 -574.005 765.591 -556.855 715.773C-539.704 665.956 -515.977 553.153 -307.683 604.276C-99.3887 655.399 -169.853 592.688 -11.1142 588.439C147.625 584.189 239.651 534.692 411.164 485.955C582.677 437.218 800.452 512.765 919.357 523.028C1038.26 533.291 1054.02 528.244 1226.25 448.438C1398.48 368.631 1613.57 478.38 1700.91 435.407C1788.25 392.434 1763.02 264.386 1899.96 212.354Z" fill="#00D5FF"/>
</svg>
