<svg width="1920" height="259" viewBox="0 0 1920 259" fill="none" xmlns="http://www.w3.org/2000/svg">
<path d="M95.8815 68.7252C-63.9882 41.9132 -136.647 162.871 -293.51 120.524L-1682 180.376L-255.35 695.944L3114.63 161.059C3115.86 160.879 3117.11 160.68 3118.38 160.464L3114.63 161.059C2987.14 179.797 3125.54 1.75747 3025.79 53.9887C2925.07 106.722 2826.67 151.286 2789.01 102.944C2751.36 54.6015 2681.41 -57.8662 2491.27 36.6834C2301.13 131.233 2346.96 52.0657 2184.47 79.2314C2021.97 106.397 1908.62 73.2842 1715.07 56.7742C1521.53 40.2643 1331.73 162.073 1215.48 196.391C1099.24 230.709 1081.22 228.602 874.303 179.956C667.384 131.311 494.227 288.119 388.281 260.85C282.334 233.581 255.751 95.5372 95.8815 68.7252Z" fill="#006AFF"/>
</svg>
