<svg width="1092" height="1041" viewBox="0 0 1092 1041" fill="none" xmlns="http://www.w3.org/2000/svg">
<path d="M376.691 743.99C368.081 767.839 362.105 791.19 367.266 817.649C341.995 826.611 314.786 837.235 289.963 852.087C291.38 848.879 292.712 845.596 293.954 842.208C300.804 823.526 304.866 802.165 307.2 773.846C327.888 771.611 342.074 765.46 355.005 757.819C362.87 753.173 369.505 748.547 376.691 743.99ZM810.843 183.861C722.624 342.588 692.72 451.247 681.506 582.906C581.598 619.064 519.315 644.882 410.225 703.99C421.36 665.943 434.256 622.327 444.324 579.478C455.749 530.859 463.819 482.119 461.272 442.707C553.87 389.203 610.784 354.499 665.417 312.656C709.588 278.827 752.14 240.427 810.843 183.861Z" fill="#A30000" stroke="#FF0000" stroke-width="19"/>
<path d="M656.259 398.308C647.616 411.848 639.715 424.634 633.168 438.273C620.42 464.833 613.029 494.164 613.825 538.914C549.623 559.848 518.927 587.144 487.029 612.981C510.177 561.292 522.056 517.671 524.662 479.453C565.795 463.812 592.212 449.562 616.214 431.803C629.775 421.769 642.548 410.615 656.723 397.582C656.568 397.824 656.413 398.066 656.259 398.308Z" fill="#760000" stroke="#D70000" stroke-width="14"/>
</svg>
