<svg id="visual" viewBox="0 0 1980 1080" width="1980" height="1080" xmlns="http://www.w3.org/2000/svg" xmlns:xlink="http://www.w3.org/1999/xlink" version="1.1"><path d="M0 817L47.2 820.8C94.3 824.7 188.7 832.3 283 829.8C377.3 827.3 471.7 814.7 566 830.8C660.3 847 754.7 892 848.8 889.5C943 887 1037 837 1131.2 806.7C1225.3 776.3 1319.7 765.7 1414 773.8C1508.3 782 1602.7 809 1697 842C1791.3 875 1885.7 914 1932.8 933.5L1980 953L1980 1081L1932.8 1081C1885.7 1081 1791.3 1081 1697 1081C1602.7 1081 1508.3 1081 1414 1081C1319.7 1081 1225.3 1081 1131.2 1081C1037 1081 943 1081 848.8 1081C754.7 1081 660.3 1081 566 1081C471.7 1081 377.3 1081 283 1081C188.7 1081 94.3 1081 47.2 1081L0 1081Z" fill="#7bf1ff"></path><path d="M0 949L47.2 934.7C94.3 920.3 188.7 891.7 283 888.5C377.3 885.3 471.7 907.7 566 905C660.3 902.3 754.7 874.7 848.8 864.5C943 854.3 1037 861.7 1131.2 869.8C1225.3 878 1319.7 887 1414 898.2C1508.3 909.3 1602.7 922.7 1697 910.3C1791.3 898 1885.7 860 1932.8 841L1980 822L1980 1081L1932.8 1081C1885.7 1081 1791.3 1081 1697 1081C1602.7 1081 1508.3 1081 1414 1081C1319.7 1081 1225.3 1081 1131.2 1081C1037 1081 943 1081 848.8 1081C754.7 1081 660.3 1081 566 1081C471.7 1081 377.3 1081 283 1081C188.7 1081 94.3 1081 47.2 1081L0 1081Z" fill="#198fbd"></path><path d="M0 999L47.2 993C94.3 987 188.7 975 283 966.3C377.3 957.7 471.7 952.3 566 962.2C660.3 972 754.7 997 848.8 1001.2C943 1005.3 1037 988.7 1131.2 977.3C1225.3 966 1319.7 960 1414 953.7C1508.3 947.3 1602.7 940.7 1697 936.2C1791.3 931.7 1885.7 929.3 1932.8 928.2L1980 927L1980 1081L1932.8 1081C1885.7 1081 1791.3 1081 1697 1081C1602.7 1081 1508.3 1081 1414 1081C1319.7 1081 1225.3 1081 1131.2 1081C1037 1081 943 1081 848.8 1081C754.7 1081 660.3 1081 566 1081C471.7 1081 377.3 1081 283 1081C188.7 1081 94.3 1081 47.2 1081L0 1081Z" fill="#00356b"></path></svg>